<?xml version="1.0" encoding="UTF-8"?>
<svg width="20px" height="20px" viewBox="0 0 20 20" version="1.1" xmlns="http://www.w3.org/2000/svg" xmlns:xlink="http://www.w3.org/1999/xlink">
    <!-- Generator: Sketch 55 (78076) - https://sketchapp.com -->
    <title>icon_full_screen</title>
    <desc>Created with Sketch.</desc>
    <g id="页面1" stroke="none" stroke-width="1" fill="none" fill-rule="evenodd">
        <g id="Dashboard" transform="translate(-1682.000000, -39.000000)" fill="#2EC0F3" fill-rule="nonzero">
            <g id="quanping-2" transform="translate(1682.000000, 39.000000)">
                <path d="M13.3528674,7.45052156 L18.6973239,2.12450594 L18.6789896,5.14272625 C18.6716346,5.39303654 18.8740307,5.61384682 19.124341,5.60649182 L19.4445772,5.60649182 C19.6948875,5.59911016 19.9046653,5.45190331 19.9083428,5.19791549 L19.9230795,0.703709245 C19.9230795,0.700005078 19.9304345,0.464458125 19.9304345,0.464458125 C19.9341387,0.339342943 19.9046387,0.225207005 19.8236536,0.144221901 C19.7426685,0.0632367969 19.6323166,0.0117517188 19.5034173,0.0154025781 L19.2751987,0.0191067448 C19.2715212,0.0191067448 19.2679503,0.0191067448 19.2642462,0.0228109115 L14.806815,0.00434341146 C14.5565047,0.0117250781 14.3467269,0.217905286 14.3430494,0.471813125 L14.3430494,0.792049349 C14.3799311,1.09019388 14.6153981,1.26319659 14.8657084,1.25581492 L17.8029436,1.26319659 L12.4732238,6.57087797 C12.2302685,6.81383326 12.2302685,7.20759294 12.4732238,7.45052156 C12.7161791,7.69715435 13.1100187,7.69715435 13.352974,7.45052156 L13.3528674,7.45052156 Z M6.61706096,12.471091 L1.26892701,17.778799 L1.2873412,14.7751821 C1.29472286,14.5249784 1.09222016,14.3041681 0.84190987,14.3114165 L0.503339427,14.3114165 C0.253029141,14.3187982 0.0432513542,14.4660317 0.0395738542,14.7200195 L0.0248371875,19.2179033 C0.0248371875,19.2216074 0.0174821615,19.4571544 0.0174821615,19.4571544 C0.0137779948,19.5823762 0.0432779948,19.6964055 0.12415651,19.7773906 C0.205141615,19.8583757 0.315600052,19.9098608 0.444392734,19.9062099 L0.672584687,19.9025058 C0.676288854,19.9025058 0.679966354,19.9025058 0.683670495,19.8988016 L5.15954253,19.9172424 C5.40974622,19.9098608 5.6196306,19.7037872 5.6233081,19.4497727 L5.62330807,19.1295632 C5.58645307,18.8314186 5.35087945,18.6584159 5.1005425,18.6657976 L2.16328065,18.6584159 L7.48932292,13.3508145 C7.7322782,13.1078592 7.7322782,12.7139929 7.48932292,12.4710643 C7.25017839,12.2244315 6.86001625,12.2244315 6.61706096,12.471091 L6.61706096,12.471091 Z M19.9231061,19.2179033 L19.912047,14.7200195 C19.9046653,14.4696826 19.6984851,14.3187982 19.4482548,14.3114165 L19.1280452,14.3114165 C18.8777083,14.3041681 18.6789897,14.5249784 18.6825872,14.7751821 L18.7010281,17.793509 L13.3528674,12.471091 C13.1099121,12.2281357 12.7160725,12.2281357 12.4731172,12.471091 C12.2302685,12.7140196 12.2302685,13.1078859 12.4731172,13.3508412 L17.7992395,18.6584159 L14.8620042,18.6657976 C14.611694,18.6584159 14.3798245,18.8351228 14.3392653,19.1295632 L14.3392653,19.4497994 C14.3466204,19.7001097 14.5528272,19.9098875 14.8030309,19.9172691 L19.2604887,19.8988283 C19.2641662,19.8988283 19.2678438,19.9025324 19.2715479,19.9025324 L19.4997665,19.9062366 C19.624855,19.9099141 19.7390176,19.8621065 19.8199761,19.7774173 C19.9009612,19.6964322 19.9303546,19.5824028 19.9266771,19.4571811 C19.9266771,19.4571811 19.9229729,19.2216074 19.9229729,19.2179299 L19.9231061,19.2179299 L19.9231061,19.2179033 Z M2.16709138,1.26319656 L5.10432659,1.2558149 C5.35453029,1.26319656 5.58642638,1.08648969 5.62698555,0.792049323 L5.62698557,0.471786484 C5.61960391,0.221476198 5.41353029,0.0116984115 5.16322,0.00431677083 L0.683750417,0.0227576042 C0.68004625,0.0227576042 0.67636875,0.0190534375 0.672664609,0.0190534375 L0.444499297,0.0153492708 C0.319277526,0.0116717708 0.205248177,0.059479349 0.124263073,0.144168594 C0.0432779688,0.225153698 0.0137779948,0.339183047 0.017588724,0.464404818 C0.017588724,0.464404818 0.02494375,0.699978437 0.02494375,0.703655937 L0.0358963281,5.20153971 C0.0396004948,5.45177005 0.249458203,5.60276102 0.499661901,5.61003609 L0.838338932,5.61003609 C1.08864922,5.61739112 1.28736781,5.39658081 1.28366367,5.14627052 L1.26895365,2.14276023 L6.61351669,7.45417242 C6.85633872,7.69712771 7.25020503,7.69712771 7.49313365,7.45417242 C7.73608893,7.21121714 7.73608893,6.8173775 7.49313365,6.57442221 L2.16709138,1.26319656 L2.16709138,1.26319656 Z" id="形状"></path>
            </g>
        </g>
    </g>
</svg>