<?xml version="1.0" encoding="UTF-8"?>
<svg width="134px" height="134px" viewBox="0 0 134 134" version="1.1" xmlns="http://www.w3.org/2000/svg" xmlns:xlink="http://www.w3.org/1999/xlink">
    <!-- Generator: Sketch 55 (78076) - https://sketchapp.com -->
    <title>bg_popup</title>
    <desc>Created with Sketch.</desc>
    <defs>
        <polygon id="path-1" points="21 7 113 7 127 21 127 113 113 127 21 127 7 113 7 21"></polygon>
        <filter x="-8.3%" y="-8.3%" width="116.7%" height="116.7%" filterUnits="objectBoundingBox" id="filter-2">
            <feGaussianBlur stdDeviation="10" in="SourceAlpha" result="shadowBlurInner1"></feGaussianBlur>
            <feOffset dx="0" dy="0" in="shadowBlurInner1" result="shadowOffsetInner1"></feOffset>
            <feComposite in="shadowOffsetInner1" in2="SourceAlpha" operator="arithmetic" k2="-1" k3="1" result="shadowInnerInner1"></feComposite>
            <feColorMatrix values="0 0 0 0 0.397450817   0 0 0 0 0.888033597   0 0 0 0 0.961163949  0 0 0 0.3 0" type="matrix" in="shadowInnerInner1"></feColorMatrix>
        </filter>
    </defs>
    <g id="页面1" stroke="none" stroke-width="1" fill="none" fill-rule="evenodd">
        <g id="编组-5">
            <g id="矩形备份-6">
                <use fill="#091C3D" fill-rule="evenodd" xlink:href="#path-1"></use>
                <use fill="black" fill-opacity="1" filter="url(#filter-2)" xlink:href="#path-1"></use>
                <path stroke-opacity="0.4" stroke="#65E2F5" stroke-width="0.8" d="M21.1656854,7.4 L7.4,21.1656854 L7.4,112.834315 L21.1656854,126.6 L112.834315,126.6 L126.6,112.834315 L126.6,21.1656854 L112.834315,7.4 L21.1656854,7.4 Z" stroke-linejoin="square"></path>
            </g>
            <polyline id="路径-19" stroke="#65E2F5" points="83 1 117 1 133 17 133 51"></polyline>
            <polyline id="路径-19备份-4" stroke="#65E2F5" transform="translate(26.000000, 26.000000) scale(-1, 1) translate(-26.000000, -26.000000) " points="1 1 35 1 51 17 51 51"></polyline>
            <polyline id="路径-19备份" stroke="#65E2F5" transform="translate(108.000000, 108.000000) scale(1, -1) translate(-108.000000, -108.000000) " points="83 83 117 83 133 99 133 133"></polyline>
            <polyline id="路径-19备份-5" stroke="#65E2F5" transform="translate(26.000000, 108.000000) scale(-1, -1) translate(-26.000000, -108.000000) " points="1 83 35 83 51 99 51 133"></polyline>
        </g>
    </g>
</svg>