<?xml version="1.0" encoding="UTF-8"?>
<svg width="18px" height="19px" viewBox="0 0 18 19" version="1.1" xmlns="http://www.w3.org/2000/svg" xmlns:xlink="http://www.w3.org/1999/xlink">
    <!-- Generator: Sketch 55 (78076) - https://sketchapp.com -->
    <title>icon_password</title>
    <desc>Created with Sketch.</desc>
    <g id="页面1" stroke="none" stroke-width="1" fill="none" fill-rule="evenodd">
        <g id="0-1登录页面" transform="translate(-765.000000, -558.000000)" fill="#3AABD4" fill-rule="nonzero">
            <g id="编组-4" transform="translate(690.000000, 382.000000)">
                <g id="编组-2备份" transform="translate(50.000000, 162.000000)">
                    <g id="mima" transform="translate(25.000000, 14.000000)">
                        <path d="M15.75,17.3964968 C16.1642136,17.3964968 16.5,17.0578587 16.5,16.6401274 L16.5,9.07643312 C16.5,8.65870182 16.1642136,8.32006369 15.75,8.32006369 L2.25,8.32006369 C1.83578644,8.32006369 1.5,8.65870182 1.5,9.07643312 L1.5,16.6401274 C1.5,17.0578587 1.83578644,17.3964968 2.25,17.3964968 L15.75,17.3964968 Z M15.75,18.9092357 L2.25,18.9092357 C1.00735931,18.9092357 -2.84217094e-14,17.8933213 -2.84217094e-14,16.6401274 L-2.84217094e-14,9.07643312 C-2.84217094e-14,7.82323922 1.00735931,6.80732484 2.25,6.80732484 L15.75,6.80732484 C16.9926407,6.80732484 18,7.82323922 18,9.07643312 L18,16.6401274 C18,17.8933213 16.9926407,18.9092357 15.75,18.9092357 L15.75,18.9092357 Z" id="形状"></path>
                        <path d="M8.25,11.3455414 C8.25,10.9278101 8.58578644,10.589172 9,10.589172 C9.41421356,10.589172 9.75,10.9278101 9.75,11.3455414 L9.75,14.3710191 C9.75,14.7887504 9.41421356,15.1273885 9,15.1273885 C8.58578644,15.1273885 8.25,14.7887504 8.25,14.3710191 L8.25,11.3455414 Z M5.25,7.56369427 C5.25,7.98142557 4.91421356,8.32006369 4.5,8.32006369 C4.08578644,8.32006369 3.75,7.98142557 3.75,7.56369427 L3.75,5.29458599 C3.75,2.37046689 6.10050506,-4.19607731e-14 9,-4.26325641e-14 C11.8994949,-4.33043551e-14 14.25,2.37046689 14.25,5.29458599 L14.25,7.56369427 C14.25,7.98142557 13.9142136,8.32006369 13.5,8.32006369 C13.0857864,8.32006369 12.75,7.98142557 12.75,7.56369427 L12.75,5.29458599 C12.75,3.20592949 11.0710678,1.51273885 9,1.51273885 C6.92893219,1.51273885 5.25,3.20592949 5.25,5.29458599 L5.25,7.56369427 Z" id="形状"></path>
                    </g>
                </g>
            </g>
        </g>
    </g>
</svg>