<?xml version="1.0" encoding="UTF-8"?>
<svg width="18px" height="18px" viewBox="0 0 18 18" version="1.1" xmlns="http://www.w3.org/2000/svg" xmlns:xlink="http://www.w3.org/1999/xlink">
    <!-- Generator: Sketch 55 (78076) - https://sketchapp.com -->
    <title>icon_user</title>
    <desc>Created with Sketch.</desc>
    <g id="页面1" stroke="none" stroke-width="1" fill="none" fill-rule="evenodd">
        <g id="0-1登录页面" transform="translate(-765.000000, -488.000000)" fill="#3AABD4" fill-rule="nonzero">
            <g id="编组-4" transform="translate(690.000000, 382.000000)">
                <g id="编组-2" transform="translate(50.000000, 92.000000)">
                    <g id="yonghuuser145" transform="translate(25.000000, 14.000000)">
                        <path d="M17.6476006,13.5 C17.6476006,11.66175 15.79275,10.083375 12.63375,9.38475 C13.172625,8.643375 13.5,7.73775 13.5,6.75 L13.5,4.5 C13.5,2.014875 11.485125,0 9,0 C6.514875,0 4.5,2.014875 4.5,4.5 L4.5,6.75 C4.5,7.73775 4.827375,8.643375 5.36625,9.38475 C2.20725,10.083375 0.195055395,11.66175 0.195055395,13.5 C0.195055395,13.894875 0.195055395,15.345 0.195055395,15.75 C0.195055395,16.993125 1.006875,18 2.25,18 L15.75,18 C16.993125,18 17.6476006,16.993125 17.6476006,15.75 C17.6476006,15.345 17.6476006,13.894875 17.6476006,13.5 Z M5.72727273,4.26136364 C5.72727273,2.75454545 7.19181818,1.53409091 9,1.53409091 C10.8081818,1.53409091 12.2727273,2.75454545 12.2727273,4.26136364 L12.2727273,6.98863636 C12.2727273,8.49545455 10.8081818,9.71590909 9,9.71590909 C7.19181818,9.71590909 5.72727273,8.49545455 5.72727273,6.98863636 L5.72727273,4.26136364 Z M16.3636364,16.6989659 L1.63636364,16.6989659 L1.63636364,13.5 C1.63636364,11.9178409 4.93281818,10.6363636 9,10.6363636 C13.0671818,10.6363636 16.3636364,11.9178409 16.3636364,13.5 L16.3636364,16.6989659 Z" id="形状"></path>
                    </g>
                </g>
            </g>
        </g>
    </g>
</svg>