<?xml version="1.0" encoding="UTF-8"?>
<svg width="48px" height="48px" viewBox="0 0 48 48" version="1.1" xmlns="http://www.w3.org/2000/svg" xmlns:xlink="http://www.w3.org/1999/xlink">
    <!-- Generator: Sketch 55 (78076) - https://sketchapp.com -->
    <title>icon_del</title>
    <desc>Created with Sketch.</desc>
    <defs>
        <radialGradient cx="50%" cy="50%" fx="50%" fy="50%" r="174.865723%" id="radialGradient-1">
            <stop stop-color="#08284F" offset="0%"></stop>
            <stop stop-color="#105675" stop-opacity="0.8" offset="100%"></stop>
        </radialGradient>
    </defs>
    <g id="页面1" stroke="none" stroke-width="1" fill="none" fill-rule="evenodd">
        <g id="4-10-1企业信息-列表" transform="translate(-939.000000, -330.000000)">
            <g id="编组-18">
                <g id="位图-+-位图备份-4-+-位图备份-5-+-位图备份-6-+-位图备份-9-+-位图备份-8-+-位图备份-7-+-位图备份-12-+-位图备份-11-+-位图备份-10-+-位图备份-+-位图备份-3蒙版" transform="translate(767.000000, 254.000000)">
                    <g id="编组-4" transform="translate(172.000000, 76.000000)">
                        <circle id="椭圆形" stroke="#65E2F5" stroke-width="0.8" fill="url(#radialGradient-1)" cx="24" cy="24" r="23.6"></circle>
                        <g id="shanchu-2" transform="translate(14.000000, 14.000000)" fill="#65E2F5" fill-rule="nonzero">
                            <path d="M19.2422912,2.24388721 L17.0847313,2.24388721 L2.84602153,2.24388721 L0.68843892,2.24388721 C0.312148593,2.24388721 0.00708269709,2.55069634 0.00708269709,2.9291369 C0.00708269709,3.30757746 0.312148593,3.61438658 0.68843892,3.61438658 L2.16466531,3.61438658 L2.16466531,19.283009 C2.16466531,19.6614495 2.4697312,19.9682587 2.84602153,19.9682587 L17.0847313,19.9682587 C17.4610216,19.9682587 17.7660875,19.6614495 17.7660875,19.283009 L17.7660875,3.61438658 L19.2422912,3.61438658 C19.6185815,3.61438658 19.9236474,3.30757746 19.9236474,2.9291369 C19.9236474,2.55069634 19.6185815,2.24388721 19.2422912,2.24388721 Z M16.4033751,18.5977593 L3.52737775,18.5977593 L3.52737775,3.61438658 L16.4033751,3.61438658 L16.4033751,18.5977593 Z" id="形状"></path>
                            <path d="M7.32525732,1.38707384 L12.6054955,1.38707384 C12.9817858,1.38707384 13.2868517,1.08026471 13.2868517,0.701824152 C13.2868517,0.323383594 12.9817858,0.0165744643 12.6054955,0.0165744643 L7.32525732,0.0165744866 C6.948967,0.0165744866 6.6439011,0.323383616 6.6439011,0.701824174 C6.6439011,1.08026473 6.94894429,1.38707384 7.32525732,1.38707384 Z" id="路径"></path>
                            <path d="M7.15887014,15.4593157 C7.53516047,15.4593157 7.84022636,15.1525066 7.84022636,14.774066 L7.84022636,7.75747471 C7.84022636,7.37903415 7.53516047,7.07222502 7.15887014,7.07222502 C6.78257981,7.07222502 6.47751392,7.37903415 6.47751392,7.75747471 L6.47751392,14.774066 C6.47751392,15.1525066 6.78257981,15.4593157 7.15887014,15.4593157 Z" id="路径"></path>
                            <path d="M12.8019759,15.4593157 C13.1782663,15.4593157 13.4833322,15.1525066 13.4833322,14.774066 L13.4833322,7.75747471 C13.4833322,7.37903415 13.1782663,7.07222502 12.8019759,7.07222502 C12.4256856,7.07222502 12.1206197,7.37903415 12.1206197,7.75747471 L12.1206197,14.774066 C12.1206197,15.1525066 12.4256856,15.4593157 12.8019759,15.4593157 Z" id="路径"></path>
                        </g>
                    </g>
                </g>
            </g>
        </g>
    </g>
</svg>