<?xml version="1.0" encoding="UTF-8"?>
<svg width="48px" height="48px" viewBox="0 0 48 48" version="1.1" xmlns="http://www.w3.org/2000/svg" xmlns:xlink="http://www.w3.org/1999/xlink">
    <!-- Generator: Sketch 55 (78076) - https://sketchapp.com -->
    <title>icon_edit</title>
    <desc>Created with Sketch.</desc>
    <defs>
        <radialGradient cx="50%" cy="50%" fx="50%" fy="50%" r="174.865723%" id="radialGradient-1">
            <stop stop-color="#08284F" offset="0%"></stop>
            <stop stop-color="#105675" stop-opacity="0.8" offset="100%"></stop>
        </radialGradient>
    </defs>
    <g id="页面1" stroke="none" stroke-width="1" fill="none" fill-rule="evenodd">
        <g id="4-10-1企业信息-列表" transform="translate(-867.000000, -330.000000)">
            <g id="编组-18">
                <g id="位图-+-位图备份-4-+-位图备份-5-+-位图备份-6-+-位图备份-9-+-位图备份-8-+-位图备份-7-+-位图备份-12-+-位图备份-11-+-位图备份-10-+-位图备份-+-位图备份-3蒙版" transform="translate(767.000000, 254.000000)">
                    <g id="编组-5" transform="translate(100.000000, 76.000000)">
                        <circle id="椭圆形备份" stroke="#65E2F5" stroke-width="0.8" fill="url(#radialGradient-1)" cx="24" cy="24" r="23.6"></circle>
                        <g id="bianji" transform="translate(14.000000, 14.000000)" fill="#65E2F5" fill-rule="nonzero">
                            <path d="M19.0988788,5.59100668 C18.612834,5.59100668 18.2192271,5.98461355 18.2192271,6.4706584 L18.2192271,18.2132634 L1.77719466,18.2132634 L1.77719466,1.77421279 L12.9353531,1.77421279 C13.4213979,1.77421279 13.8150048,1.38060592 13.8150048,0.894561069 C13.8150048,0.408516221 13.4213979,0.0149093511 12.9353531,0.0149093511 L0.921397901,0.0149093511 C0.420443702,0.0149093511 0.0149093511,0.420443702 0.0149093511,0.921397901 L0.0149093511,19.072042 C0.0149093511,19.5729962 0.420443702,19.9815124 0.921397901,19.9815124 L19.072042,19.9815124 C19.5729962,19.9815124 19.9815124,19.5729962 19.9815124,19.072042 L19.9815124,6.47364027 C19.9815124,5.98461355 19.5879055,5.59100668 19.0988788,5.59100668 Z" id="路径"></path>
                            <path d="M8.41483779,11.2744513 C8.63251431,11.4921279 8.89790076,11.6114027 9.12154103,11.6114027 C9.24976145,11.6114027 9.36605439,11.5726384 9.44656489,11.489146 L19.4239027,1.51180821 C19.6505248,1.28518607 19.555105,0.822996183 19.2121899,0.480081107 C18.9945134,0.26240458 18.7291269,0.143129771 18.5054866,0.143129771 C18.3772662,0.143129771 18.2609733,0.181894084 18.1774809,0.26538645 L8.203125,10.2427242 C7.97650286,10.4693464 8.07192271,10.9315363 8.41483779,11.2744513 Z" id="路径"></path>
                        </g>
                    </g>
                </g>
            </g>
        </g>
    </g>
</svg>