<?xml version="1.0" encoding="UTF-8"?>
<svg width="18px" height="23px" viewBox="0 0 18 23" version="1.1" xmlns="http://www.w3.org/2000/svg" xmlns:xlink="http://www.w3.org/1999/xlink">
    <!-- Generator: Sketch 55 (78076) - https://sketchapp.com -->
    <title>icon_notification</title>
    <desc>Created with Sketch.</desc>
    <g id="页面1" stroke="none" stroke-width="1" fill="none" fill-rule="evenodd">
        <g id="Dashboard" transform="translate(-1615.000000, -40.000000)" fill="#2EC0F3" fill-rule="nonzero">
            <g id="xiaoxi-2" transform="translate(1615.000000, 40.000000)">
                <path d="M16.5929861,19.9115267 L1.4089575,19.9115267 C0.638951903,19.9115267 0.0154767537,19.2961451 0.0154767537,18.5377899 L0.0154767537,17.0271392 C0.0154767537,16.6598064 0.149632605,16.309503 0.376304446,16.0621855 L2.12497418,13.6719628 L2.12497418,9.20603847 C2.12497418,7.16752967 2.79968268,5.27619949 4.02576203,3.8838401 C4.60160141,3.22815738 5.27470248,2.71654516 6.02666926,2.34310062 C6.23736897,2.23849542 6.40862306,2.06441458 6.48748873,1.83864492 C6.85637905,0.7818319 7.84027368,0.0248610163 8.99894342,0.0248610418 C8.99968334,0.0248610418 9.00029569,0.0249655107 9.00103561,0.0250699796 C9.00169286,0.0249487642 9.00235816,0.0248789167 9.00302576,0.0248610418 C10.1617465,0.0248610418 11.1456411,0.7818319 11.5145825,1.83864492 C11.5933716,2.06441458 11.7646768,2.23849542 11.9753509,2.34310062 C12.7273432,2.71654516 13.4004698,3.22815738 13.9762582,3.8838401 C15.2023375,5.2762256 15.876995,7.16752967 15.876995,9.20603847 L15.876995,13.671989 L17.6256647,16.0622116 C17.8524386,16.309503 17.9864924,16.6598325 17.9864924,17.0271653 L17.9864924,18.5378161 C17.9864924,19.2961712 17.3630683,19.9115268 16.5929861,19.9115267 Z M16.5778049,17.0271392 L14.8277574,14.6384053 C14.6010346,14.395319 14.4669297,14.0422209 14.4669297,13.6719628 L14.4669297,9.20603847 C14.4669297,7.53209387 13.9236981,5.99096262 12.9352108,4.86454336 C12.4472948,4.30988761 11.8707665,3.87663134 11.2211134,3.57647575 C11.1445957,3.54124594 11.0671829,3.50808983 10.9889559,3.47704205 C10.5942448,3.32033012 10.2711532,2.9797951 10.1993296,2.55262447 C10.1877373,2.48443507 10.1708613,2.41729838 10.1488616,2.35185039 C10.0156754,1.95408939 9.67997955,1.63813202 9.27914494,1.54765699 C9.26715307,1.54496675 9.25577356,1.54611599 9.2438327,1.54381755 L9.2438327,1.54629882 C9.16529873,1.52973959 9.08398364,1.52109433 9.00103561,1.51984062 C8.91803657,1.52109433 8.83667045,1.52973959 8.75813647,1.54629882 L8.75813647,1.54381755 C8.74619564,1.54611599 8.73486715,1.54496675 8.72287527,1.54765699 C8.32198963,1.63815813 7.98626831,1.9541155 7.85310753,2.35185039 C7.8311003,2.41729223 7.81424093,2.48443095 7.80269065,2.55262447 C7.73081597,2.97982119 7.40772439,3.3203301 7.01306432,3.47704205 C6.9348512,3.50808235 6.85745522,3.54123855 6.78095785,3.57647575 C6.13120263,3.87663134 5.5547254,4.30988759 5.06675837,4.86454336 C4.07837316,5.9909626 3.53509047,7.53211998 3.53509047,9.20603847 L3.53509047,13.671989 C3.53509047,14.042247 3.40093462,14.3953451 3.17426275,14.6384314 L1.42416423,17.0271653 L1.41030977,18.5227979 L9.00101011,18.5302939 L16.5917104,18.5227979 L16.5778049,17.0271392 L16.5778049,17.0271392 Z M7.7495437,21.0401138 C8.04153296,21.3033637 8.4149904,21.4476693 8.79985288,21.4855414 C8.86667566,21.4922016 8.93380462,21.4898771 9.00103561,21.4899293 C9.06816458,21.4898771 9.13526801,21.4922277 9.2021163,21.4855414 C9.58697877,21.4476432 9.96043621,21.3033637 10.2524765,21.0401138 C10.4509802,20.8611749 10.6005214,20.645905 10.7038301,20.4077028 L12.1572191,20.4091394 C12.0089792,21.0401138 11.6759369,21.6146198 11.1877913,22.0559728 C10.6525712,22.5421193 9.96778442,22.8193689 9.24385821,22.8731472 L9.24385821,22.8733039 C9.16279827,22.8792589 9.08362642,22.8955309 9.00164796,22.8955309 C9.00144385,22.8955309 9.00126523,22.8954264 9.00106112,22.8954264 C9.00085701,22.8954263 9.00057634,22.8955308 9.00037223,22.8955309 C8.91839377,22.8955309 8.83922192,22.8792851 8.75816198,22.8733039 L8.75816198,22.8731472 C8.03428681,22.8193427 7.3494745,22.5421193 6.8142289,22.0559728 C6.32610878,21.6146198 5.99311753,21.0401138 5.84480106,20.4091394 L7.29819013,20.4077028 C7.40154983,20.6458788 7.55101446,20.8611749 7.7495437,21.0401138 L7.7495437,21.0401138 Z" id="形状"></path>
            </g>
        </g>
    </g>
</svg>