<?xml version="1.0" encoding="UTF-8"?>
<svg width="18px" height="18px" viewBox="0 0 18 18" version="1.1" xmlns="http://www.w3.org/2000/svg" xmlns:xlink="http://www.w3.org/1999/xlink">
    <!-- Generator: Sketch 55 (78076) - https://sketchapp.com -->
    <title>icon_abnormal</title>
    <desc>Created with Sketch.</desc>
    <defs>
        <linearGradient x1="100%" y1="50%" x2="-2.22044605e-14%" y2="50%" id="linearGradient-1">
            <stop stop-color="#D86C46" offset="0%"></stop>
            <stop stop-color="#E54D42" offset="100%"></stop>
        </linearGradient>
    </defs>
    <g id="页面1" stroke="none" stroke-width="1" fill="none" fill-rule="evenodd">
        <g id="Dashboard" transform="translate(-154.000000, -258.000000)" fill="url(#linearGradient-1)" fill-rule="nonzero">
            <g id="编组-9" transform="translate(30.000000, 113.000000)">
                <g id="编组-8备份" transform="translate(124.000000, 84.000000)">
                    <g id="zuoyebaojing" transform="translate(0.000000, 61.000000)">
                        <path d="M3.82359375,16.1834391 L3.24646875,17.9720178 L14.7062812,17.9720178 L14.1274688,16.1834391 L3.82359375,16.1834391 Z M5.62246875,17.6407995 L3.73865625,17.6407995 L4.10428125,16.5146574 L6.73059375,16.5146574 C6.36159375,16.8887056 5.99146875,17.2650381 5.62246875,17.6407995 L5.62246875,17.6407995 Z M8.94290625,5.38743655 C6.42065632,5.38743655 4.37596875,7.46326149 4.37596875,10.0239213 L4.37596875,15.7197335 L13.5750937,15.7197335 L13.5750937,10.0239213 C13.5750937,7.46326149 11.5304062,5.38743655 9.00815625,5.38743655 L8.94290625,5.38743655 Z M12.6942187,10.1558376 C12.6942188,10.375192 12.5190641,10.553014 12.303,10.553014 C12.0869359,10.553014 11.9117813,10.375192 11.9117813,10.1558376 C11.9096116,8.54708745 10.6254005,7.24357525 9.04078125,7.24168782 L8.97609375,7.24168782 C8.75987427,7.24168782 8.58459375,7.06373805 8.58459375,6.84422589 C8.58459375,6.62471373 8.75987427,6.44676396 8.97609375,6.44676396 L9.04078125,6.44676396 C11.0574912,6.44928115 12.6917393,8.10841634 12.6942188,10.1558376 L12.6942187,10.1558376 Z M3.64134375,8.16453046 C3.68008744,7.96801305 3.64033365,7.76391944 3.53083088,7.59716396 C3.42132811,7.43040847 3.25104984,7.3146563 3.05746875,7.27538071 L0.90421875,6.83623096 C0.666212316,6.78813752 0.420044742,6.86069471 0.244410407,7.0307076 C0.0687760728,7.20072049 -0.0143311677,7.44689916 0.02165625,7.69054569 C0.06778125,7.99549492 0.29559375,8.25418782 0.61228125,8.31814721 L2.76553125,8.75672589 C3.16837963,8.83832749 3.5602385,8.57336549 3.64134375,8.16453046 Z M3.14690625,3.09803299 L4.51996875,4.84035533 C4.77646875,5.16586294 5.24390625,5.21954315 5.56453125,4.95799492 C5.71897932,4.83312853 5.8180817,4.65095355 5.83993137,4.45174054 C5.86178104,4.25252754 5.80457855,4.05268294 5.68096875,3.89638325 L4.30959375,2.15463198 C4.05298844,1.82867536 3.58469229,1.77562281 3.26362501,2.0361358 C2.94255773,2.2966488 2.89030096,2.77207636 3.14690625,3.09803299 Z M9.06946875,3.75761421 C9.48027378,3.76687144 9.82096104,3.43683377 9.83109375,3.01979695 L9.82546875,0.79035533 C9.83509922,0.373250683 9.50984808,0.0271946348 9.099,0.0174175127 C8.68815192,0.00764039053 8.34728672,0.337844592 8.33765625,0.754949239 L8.34271875,2.98439086 C8.33788889,3.18482578 8.41179066,3.37897908 8.54812586,3.52403248 C8.68446107,3.66908589 8.87203081,3.75312437 9.06946875,3.75761421 L9.06946875,3.75761421 Z M12.5136562,5.12360406 C12.6615836,5.25621096 12.8554228,5.32357821 13.0523638,5.31082748 C13.2493048,5.29807674 13.4331445,5.20625706 13.5632812,5.05564721 L15.0139687,3.38128173 C15.2676134,3.06652362 15.2303425,2.60440801 14.9296423,2.33573138 C14.6289421,2.06705476 14.1727112,2.08822489 13.8974062,2.38362944 L12.4461562,4.05799492 C12.3009441,4.22546327 12.2362667,4.44963552 12.2695312,4.67017766 C12.2942812,4.84035533 12.3752812,5.00139594 12.5136563,5.12360406 L12.5136562,5.12360406 Z M17.9294063,7.85558376 C17.8673206,7.44296152 17.4876246,7.15947663 17.0811563,7.22227157 L14.9104688,7.55805838 C14.6378532,7.58749431 14.4032101,7.76660641 14.2996558,8.02431538 C14.1961016,8.28202434 14.2403824,8.57665497 14.4149257,8.79128528 C14.589469,9.00591559 14.8660487,9.10583681 15.1349063,9.05139594 L17.3050313,8.7161802 C17.5002707,8.6861834 17.6757631,8.57864031 17.7928689,8.41722956 C17.9099747,8.25581881 17.959092,8.053775 17.9294063,7.85558376 L17.9294063,7.85558376 Z" id="形状"></path>
                    </g>
                </g>
            </g>
        </g>
    </g>
</svg>