<?xml version="1.0" encoding="UTF-8"?>
<svg width="13px" height="16px" viewBox="0 0 13 16" version="1.1" xmlns="http://www.w3.org/2000/svg" xmlns:xlink="http://www.w3.org/1999/xlink">
    <!-- Generator: Sketch 55 (78076) - https://sketchapp.com -->
    <title>icon_huojing</title>
    <desc>Created with Sketch.</desc>
    <defs>
        <linearGradient x1="100%" y1="50%" x2="-2.22044605e-14%" y2="50%" id="linearGradient-1">
            <stop stop-color="#EA574C" offset="0%"></stop>
            <stop stop-color="#E33126" offset="100%"></stop>
        </linearGradient>
    </defs>
    <g id="页面1" stroke="none" stroke-width="1" fill="none" fill-rule="evenodd">
        <g id="Dashboard" transform="translate(-50.000000, -256.000000)" fill="url(#linearGradient-1)" fill-rule="nonzero">
            <g id="编组-9" transform="translate(30.000000, 113.000000)">
                <g id="编组-8" transform="translate(20.000000, 80.000000)">
                    <g id="huojing" transform="translate(0.000000, 63.000000)">
                        <path d="M3.25612158,16 C3.25612158,16 0.334460616,14.2491429 0.0328339041,11.4868571 C-0.269905822,8.70971429 2.0473887,4.92228571 2.0473887,4.92228571 L2.45029966,6.97371429 C2.45029966,6.97371429 3.93728596,5.29257143 4.8666524,3.28114286 C5.48214897,1.95085714 5.26956336,0 5.26956336,0 C5.26956336,0 6.65192637,0.709714286 7.68702911,2.05028571 C8.85903253,3.57028571 9.7015839,6.15314286 9.7015839,6.15314286 L10.1044949,2.87085714 C10.1044949,2.87085714 13.1163099,7.11542857 12.9237586,10.2548571 C12.714512,13.6685714 9.29867295,16 9.29867295,16 C9.29867295,16 10.3259846,13.4068571 9.7015839,11.0765714 C9.11947774,8.89942857 6.88120719,6.97371429 6.88120719,6.97371429 C6.88120719,6.97371429 6.6296661,8.408 6.47829623,9.02514286 C6.24456336,9.97485714 6.07538527,10.6662857 6.07538527,10.6662857 L4.8666524,8.61485714 C4.8666524,8.61485714 3.85826199,10.9165714 3.25612158,12.3062857 C2.41245719,14.256 3.25612158,16 3.25612158,16 Z" id="路径"></path>
                    </g>
                </g>
            </g>
        </g>
    </g>
</svg>