<?xml version="1.0" encoding="UTF-8"?>
<svg width="15px" height="16px" viewBox="0 0 15 16" version="1.1" xmlns="http://www.w3.org/2000/svg" xmlns:xlink="http://www.w3.org/1999/xlink">
    <!-- Generator: Sketch 55 (78076) - https://sketchapp.com -->
    <title>icon_repairs</title>
    <desc>Created with Sketch.</desc>
    <defs>
        <linearGradient x1="50%" y1="0%" x2="50%" y2="100%" id="linearGradient-1">
            <stop stop-color="#69EBF9" offset="0%"></stop>
            <stop stop-color="#38D3F0" offset="100%"></stop>
        </linearGradient>
    </defs>
    <g id="页面1" stroke="none" stroke-width="1" fill="none" fill-rule="evenodd">
        <g id="Dashboard" transform="translate(-369.000000, -265.000000)" fill="url(#linearGradient-1)" fill-rule="nonzero">
            <g id="编组-9" transform="translate(30.000000, 113.000000)">
                <g id="编组-8备份-3" transform="translate(339.000000, 91.000000)">
                    <g id="xitongguzhang" transform="translate(0.000000, 61.000000)">
                        <path d="M10.3474392,8.48565341 L9.48641855,9.33996804 L8.85935692,8.79172585 L8.09805411,8.06674361 L9.46354167,6.63219105 C10.9968895,7.28826349 12.5876194,7.02215909 13.6582212,6.11138139 C14.7094184,5.215625 14.7094184,3.45449219 14.7094184,3.45449219 L13.867712,3.13194247 L12.2499457,4.73977273 L9.89075159,2.44341264 L11.5197121,0.825142045 L11.1871383,0.00078125 C11.1871383,0.00078125 9.55723741,0.00078125 8.47039569,1.05983665 C7.46039497,2.04351918 7.14053458,3.66178977 7.85197844,5.12478693 L6.43507668,6.48194247 L4.395761,4.53909801 L4.27473958,3.17842685 L2.36557798,1.97008168 L1.82702185,2.49934304 L1.28944227,3.02908381 L0.750379774,3.55834517 L1.97905816,5.4362571 L3.2784469,5.54763849 L5.36919488,7.50348011 L0.0266927083,12.6204901 C0.0266927083,12.6204901 -0.127405237,13.5607422 0.4966182,14.1743786 C0.999602141,14.668679 1.91247106,14.5673651 1.91247106,14.5673651 L7.09778284,9.11981534 L7.84942853,9.82338423 L8.40782335,10.3691229 L7.33733001,11.4486151 C8.87319155,12.9580611 10.4085648,14.4685014 11.9443902,15.9789418 C13.5260055,15.5604936 14.4379159,14.4824751 14.9560909,13.0169389 C13.4187102,11.505522 11.8828306,9.99508168 10.3474573,8.48567116 L10.3474573,8.48567116 L10.3474392,8.48565341 Z M2.03647642,13.4529297 C1.79036458,13.696076 1.39008247,13.6990412 1.14087818,13.4574219 C0.892686632,13.2152876 0.890643084,12.8207919 1.13630281,12.5756037 C1.38192636,12.3304155 1.78320313,12.3279652 2.03238932,12.5711115 C2.28005642,12.8137962 2.28365524,13.2072443 2.03645833,13.4529297 L2.03645833,13.4529297 L2.03647642,13.4529297 Z M12.0790473,14.8159979 L8.58572049,11.3806818 L9.10344329,10.8718572 L12.7208478,14.4310192 L12.0790654,14.8159801 L12.0790473,14.8159979 Z M13.3098235,13.8508345 L9.69241898,10.2931996 L10.2106301,9.78288352 L13.7034505,13.2181996 L13.3098235,13.8508345 L13.3098235,13.8508345 Z" id="形状"></path>
                    </g>
                </g>
            </g>
        </g>
    </g>
</svg>