<?xml version="1.0" standalone="no"?><!DOCTYPE svg PUBLIC "-//W3C//DTD SVG 1.1//EN" "http://www.w3.org/Graphics/SVG/1.1/DTD/svg11.dtd"><svg t="1594103164058" class="icon" viewBox="0 0 1024 1024" version="1.1" xmlns="http://www.w3.org/2000/svg" p-id="8266" xmlns:xlink="http://www.w3.org/1999/xlink" width="32" height="32"><defs><style type="text/css"></style></defs><path d="M787.5982 269.98864c0-0.719202 0.14384-1.438404 0.143841-2.157606a266.536255 266.536255 0 0 0-18.986933-99.106033 21.000698 21.000698 0 0 0-1.006883-2.732967l-4.171371-9.349626a25.891271 25.891271 0 1 0-47.17965 21.144538l4.171371 9.349626a30.494164 30.494164 0 0 0 1.726085 2.876808 218.062041 218.062041 0 0 1 14.38404 77.817654v54.947032l50.9195 1.294564a163.546531 163.546531 0 0 1 0 321.051765V699.064544a216.767478 216.767478 0 0 0-0.14384-429.075904zM257.402498 321.339662l45.597406-0.287681v-53.220947A216.911318 216.911318 0 0 1 519.767381 50.919716l10.212669 0.287681a23.877506 23.877506 0 0 0 7.192019 1.726085l25.891272 2.157606a25.747431 25.747431 0 0 0 27.905037-23.589825 26.035112 26.035112 0 0 0-23.589825-27.905037l-6.904339-0.575362A271.139148 271.139148 0 0 0 519.767381 0.000216C371.899454 0.000216 251.936563 119.819266 251.936563 267.831034v0.575362a216.767478 216.767478 0 0 0-1.294564 432.240392V647.282001a163.546531 163.546531 0 0 1 0-325.366977h1.006883" fill="#2FC0F3" p-id="8267"></path><path d="M326.733569 615.924795m32.939451 0l0.14384 0q32.939451 0 32.939451 32.93945l0 157.044945q0 32.939451-32.939451 32.939451l-0.14384 0q-32.939451 0-32.939451-32.939451l0-157.044945q0-32.939451 32.939451-32.93945Z" fill="#2FC0F3" p-id="8268"></path><path d="M359.81686 903.461748m-37.110822 0a37.110822 37.110822 0 1 0 74.221645 0 37.110822 37.110822 0 1 0-74.221645 0Z" fill="#2FC0F3" p-id="8269"></path><path d="M482.081197 699.352225m32.939451 0l0.143841 0q32.939451 0 32.939451 32.93945l0 157.044946q0 32.939451-32.939451 32.93945l-0.143841 0q-32.939451 0-32.939451-32.93945l0-157.044946q0-32.939451 32.939451-32.93945Z" fill="#2FC0F3" p-id="8270"></path><path d="M515.164489 986.889178m-37.110823 0a37.110822 37.110822 0 1 0 74.221645 0 37.110822 37.110822 0 1 0-74.221645 0Z" fill="#2FC0F3" p-id="8271"></path><path d="M638.148028 615.924795m32.939451 0l0.14384 0q32.939451 0 32.939451 32.93945l0 157.044945q0 32.939451-32.939451 32.939451l-0.14384 0q-32.939451 0-32.939451-32.939451l0-157.044945q0-32.939451 32.939451-32.93945Z" fill="#2FC0F3" p-id="8272"></path><path d="M671.087479 903.461748m-37.110823 0a37.110822 37.110822 0 1 0 74.221645 0 37.110822 37.110822 0 1 0-74.221645 0Z" fill="#2FC0F3" p-id="8273"></path></svg>