<?xml version="1.0" standalone="no"?><!DOCTYPE svg PUBLIC "-//W3C//DTD SVG 1.1//EN" "http://www.w3.org/Graphics/SVG/1.1/DTD/svg11.dtd"><svg t="1594027603849" class="icon" viewBox="0 0 1024 1024" version="1.1" xmlns="http://www.w3.org/2000/svg" p-id="1198" width="32" height="32" xmlns:xlink="http://www.w3.org/1999/xlink"><defs><style type="text/css"></style></defs><path d="M146.285714 475.428571H0v73.142858h146.285714v-73.142858z m731.428572 0v73.142858h146.285714v-73.142858h-146.285714zM548.571429 0h-73.142858v146.285714h73.142858V0z m-73.142858 1024h73.142858v-146.285714h-73.142858v146.285714zM277.942857 226.742857L175.542857 124.342857 124.342857 175.542857l102.4 102.4 51.2-51.2z m464.457143 566.857143l106.057143 106.057143 51.2-51.2-106.057143-106.057143-51.2 51.2z m157.257143-618.057143l-51.2-51.2-102.4 102.4 51.2 51.2 102.4-102.4zM124.342857 848.457143l51.2 51.2 106.057143-106.057143-51.2-51.2-106.057143 106.057143zM512 219.428571c-160.914286 0-292.571429 131.657143-292.571429 292.571429s131.657143 292.571429 292.571429 292.571429 292.571429-131.657143 292.571429-292.571429-131.657143-292.571429-292.571429-292.571429z m0 512c-120.685714 0-219.428571-98.742857-219.428571-219.428571s98.742857-219.428571 219.428571-219.428571 219.428571 98.742857 219.428571 219.428571-98.742857 219.428571-219.428571 219.428571z" p-id="1199" fill="#2FC0F3"></path></svg>