<?xml version="1.0" standalone="no"?><!DOCTYPE svg PUBLIC "-//W3C//DTD SVG 1.1//EN" "http://www.w3.org/Graphics/SVG/1.1/DTD/svg11.dtd"><svg t="1594103210899" class="icon" viewBox="0 0 1024 1024" version="1.1" xmlns="http://www.w3.org/2000/svg" p-id="10198" xmlns:xlink="http://www.w3.org/1999/xlink" width="32" height="32"><defs><style type="text/css"></style></defs><path d="M436.1 770.1c-13.7 0-24.8 11.1-24.8 24.8v74.5c0 13.7 11.1 24.8 24.8 24.8 13.7 0 24.8-11.1 24.8-24.8v-74.5c0.1-13.7-11.1-24.8-24.8-24.8z m149 0c-13.7 0-24.8 11.1-24.8 24.8v74.5c0 13.7 11.1 24.8 24.8 24.8 13.7 0 24.8-11.1 24.8-24.8v-74.5c0-13.7-11.1-24.8-24.8-24.8z m-297.9 0c-13.7 0-24.8 11.1-24.8 24.8v74.5c0 13.7 11.1 24.8 24.8 24.8 13.7 0 24.8-11.1 24.8-24.8v-74.5c0-13.7-11.1-24.8-24.8-24.8zM686 224.8C649.6 150.9 573.7 100 485.8 100c-117.9 0-214.2 91.4-222.5 207.1-86.6 24.7-149.7 100.4-149.7 190 0 105.7 87.9 191.9 198.6 198 0 0 355.7 0.6 359.9 0.6 130.2 0 235.8-105.6 235.8-235.8-0.2-125.5-98.3-227.8-221.9-235.1z m48 545.3c-13.7 0-24.8 11.1-24.8 24.8v74.5c0 13.7 11.1 24.8 24.8 24.8 13.7 0 24.8-11.1 24.8-24.8v-74.5c0-13.7-11.1-24.8-24.8-24.8z" p-id="10199" fill="#2FC0F3"></path></svg>